<?xml version="1.0" standalone="no"?>
<!DOCTYPE svg PUBLIC "-//W3C//DTD SVG 20010904//EN"
 "http://www.w3.org/TR/2001/REC-SVG-20010904/DTD/svg10.dtd">
<svg version="1.0" xmlns="http://www.w3.org/2000/svg"
 width="442.000000pt" height="108.000000pt" viewBox="0 0 442.000000 108.000000"
 preserveAspectRatio="xMidYMid meet">

<g transform="translate(0.000000,108.000000) scale(0.100000,-0.100000)"
fill="#000000" stroke="none">
<path d="M604 785 c-30 -20 -50 -73 -35 -88 8 -8 11 -6 11 9 0 28 41 64 72 64
27 0 58 -28 58 -53 0 -19 16 -31 25 -18 9 16 -21 78 -43 90 -29 15 -64 14 -88
-4z"/>
<path d="M2820 555 l0 -175 30 0 30 0 0 88 c0 98 12 122 63 122 46 0 57 -22
57 -121 l0 -89 30 0 30 0 0 105 c0 99 -2 107 -25 130 -29 30 -97 34 -133 9
l-22 -15 0 60 0 61 -30 0 -30 0 0 -175z"/>
<path d="M495 708 c-6 -20 -35 -290 -35 -330 0 -24 6 -38 16 -42 25 -10 338
-7 354 3 12 8 12 29 -4 163 -25 223 -24 218 -52 218 -14 0 -24 -6 -24 -14 0
-8 -4 -17 -9 -20 -14 -9 -41 4 -41 20 0 10 -14 14 -54 14 -45 0 -54 -3 -59
-20 -3 -11 -10 -20 -17 -20 -7 0 -14 9 -17 20 -6 23 -51 28 -58 8z m231 -92
c29 -29 34 -41 34 -80 0 -90 -89 -147 -165 -106 -35 19 -55 59 -55 111 0 33 6
47 34 75 28 28 42 34 76 34 34 0 48 -6 76 -34z"/>
<path d="M640 502 c0 -6 -10 -13 -22 -15 -13 -2 0 -5 27 -5 28 0 43 2 35 5 -8
3 -21 10 -27 16 -9 6 -13 6 -13 -1z"/>
<path d="M1290 545 l0 -165 30 0 30 0 0 165 0 165 -30 0 -30 0 0 -165z"/>
<path d="M3130 545 l0 -165 35 0 34 0 3 103 3 102 41 -100 c35 -86 44 -100 65
-103 23 -3 28 5 62 90 55 137 57 138 57 16 l0 -108 30 0 30 0 0 166 0 165 -37
-3 -36 -3 -50 -117 c-27 -65 -53 -115 -57 -113 -4 2 -29 56 -55 120 l-49 115
-38 0 -38 0 0 -165z"/>
<path d="M4087 704 c-4 -4 -7 -20 -7 -36 0 -18 -5 -28 -15 -28 -9 0 -15 -9
-15 -25 0 -15 6 -25 14 -25 10 0 15 -22 18 -85 5 -99 15 -114 77 -122 39 -5
41 -4 41 20 0 18 -7 26 -25 31 -24 6 -25 10 -25 81 0 73 1 75 25 75 20 0 25 5
25 25 0 20 -5 25 -24 25 -21 0 -25 6 -28 33 -2 26 -8 33 -28 35 -14 2 -29 0
-33 -4z"/>
<path d="M1803 643 c-12 -2 -36 -20 -53 -39 -25 -29 -30 -43 -30 -85 0 -56 19
-100 52 -123 29 -21 92 -20 123 0 23 15 25 15 25 0 0 -12 9 -16 35 -16 l35 0
0 130 0 130 -35 0 c-23 0 -35 -5 -35 -14 0 -11 -8 -10 -37 5 -21 10 -42 18
-48 18 -5 -1 -20 -4 -32 -6z m97 -73 c31 -31 27 -93 -6 -119 -35 -27 -59 -26
-89 4 -31 30 -32 73 -4 109 25 32 70 35 99 6z"/>
<path d="M2310 637 c-96 -34 -110 -196 -20 -242 71 -37 180 2 180 64 0 19 -55
12 -73 -9 -42 -49 -113 1 -104 73 3 21 11 44 17 52 16 19 74 19 90 0 16 -19
70 -20 70 -1 0 16 -55 66 -73 66 -7 0 -21 2 -32 5 -11 2 -36 -1 -55 -8z"/>
<path d="M2604 639 c-50 -14 -77 -51 -82 -112 -7 -91 39 -147 123 -147 59 0
115 39 115 79 0 19 -56 12 -75 -9 -41 -45 -105 -9 -105 58 0 50 23 82 60 82
16 0 35 -7 44 -15 15 -16 76 -21 76 -6 0 21 -44 61 -78 71 -20 5 -39 10 -42 9
-3 0 -19 -5 -36 -10z"/>
<path d="M3621 637 c-67 -23 -97 -103 -67 -180 27 -73 113 -101 170 -56 l26
20 0 -20 c0 -17 6 -21 30 -21 l30 0 0 130 0 130 -30 0 c-21 0 -30 -5 -30 -16
0 -15 -2 -15 -22 -2 -35 23 -70 27 -107 15z m104 -72 c16 -15 25 -36 25 -55 0
-35 -38 -80 -67 -80 -50 0 -90 60 -72 108 21 56 73 69 114 27z"/>
<path d="M1420 510 l0 -130 30 0 30 0 0 88 c0 98 12 122 63 122 46 0 57 -22
57 -121 l0 -89 30 0 30 0 0 105 c0 99 -2 107 -25 130 -29 30 -97 34 -133 9
-20 -14 -22 -14 -22 0 0 11 -10 16 -30 16 l-30 0 0 -130z"/>
<path d="M2060 510 l0 -130 30 0 30 0 0 84 c0 93 11 116 56 116 20 0 24 5 24
30 0 35 -21 40 -58 14 -20 -14 -22 -14 -22 0 0 11 -10 16 -30 16 l-30 0 0
-130z"/>
<path d="M3880 510 l0 -130 30 0 30 0 0 80 c0 67 3 83 20 100 11 11 29 20 40
20 16 0 20 7 20 30 0 23 -5 30 -19 30 -10 0 -24 -7 -31 -15 -7 -8 -16 -15 -21
-15 -5 0 -9 7 -9 15 0 10 -10 15 -30 15 l-30 0 0 -130z"/>
</g>
</svg>
